0
SECTION
2
HEADER
9
$INSUNITS
70
4
9
$ACADVER
1
AC1014
9
$HANDSEED
5
FFFF
0
ENDSEC
0
SECTION
2
TABLES
0
TABLE
2
VPORT
5
8
100
AcDbSymbolTable
0
ENDTAB
0
TABLE
2
LTYPE
5
5
100
AcDbSymbolTable
0
LTYPE
5
14
100
AcDbSymbolTableRecord
100
AcDbLinetypeTableRecord
2
BYBLOCK
70
0
0
LTYPE
5
15
100
AcDbSymbolTableRecord
100
AcDbLinetypeTableRecord
2
BYLAYER
70
0
0
ENDTAB
0
TABLE
2
LAYER
5
2
100
AcDbSymbolTable
70
2
0
LAYER
5
50
100
AcDbSymbolTableRecord
100
AcDbLayerTableRecord
2
0
70
0
6
CONTINUOUS
0
ENDTAB
0
TABLE
2
STYLE
5
3
100
AcDbSymbolTable
70
1
0
STYLE
5
11
100
AcDbSymbolTableRecord
100
AcDbTextStyleTableRecord
2
STANDARD
70
0
0
ENDTAB
0
TABLE
2
VIEW
5
6
100
AcDbSymbolTable
70
0
0
ENDTAB
0
TABLE
2
UCS
5
7
100
AcDbSymbolTable
70
0
0
ENDTAB
0
TABLE
2
APPID
5
9
100
AcDbSymbolTable
70
2
0
APPID
5
12
100
AcDbSymbolTableRecord
100
AcDbRegAppTableRecord
2
ACAD
70
0
0
ENDTAB
0
TABLE
2
DIMSTYLE
5
A
100
AcDbSymbolTable
70
1
0
ENDTAB
0
TABLE
2
BLOCK_RECORD
5
1
100
AcDbSymbolTable
70
1
0
BLOCK_RECORD
5
1F
100
AcDbSymbolTableRecord
100
AcDbBlockTableRecord
2
*MODEL_SPACE
0
BLOCK_RECORD
5
1B
100
AcDbSymbolTableRecord
100
AcDbBlockTableRecord
2
*PAPER_SPACE
0
ENDTAB
0
ENDSEC
0
SECTION
2
BLOCKS
0
BLOCK
5
20
100
AcDbEntity
100
AcDbBlockBegin
2
*MODEL_SPACE
0
ENDBLK
5
21
100
AcDbEntity
100
AcDbBlockEnd
0
BLOCK
5
1C
100
AcDbEntity
100
AcDbBlockBegin
2
*PAPER_SPACE
0
ENDBLK
5
1D
100
AcDbEntity
100
AcDbBlockEnd
0
ENDSEC
0
SECTION
2
ENTITIES
0
LWPOLYLINE
5
100
100
AcDbEntity
8
0
100
AcDbPolyline
90
84
70
1
43
0.0
10
-208.42941040652863
20
-1.8999999999999999
10
-208.42941040652863
20
-4.9999999999999929
10
-223.86941040652863
20
-4.9999999999999929
10
-223.86941040652863
20
-1.9000000000000006
10
-239.30941040652866
20
-1.8999999999999999
10
-239.30941040652866
20
-4.9999999999999929
10
-254.74941040652865
20
-4.9999999999999929
10
-254.74941040652865
20
-1.9000000000000006
10
-270.18941040652868
20
-1.8999999999999999
10
-270.18941040652868
20
-4.9999999999999929
10
-285.62941040652868
20
-4.9999999999999929
10
-285.62941040652868
20
-1.9000000000000006
10
-301.06941040652868
20
-1.8999999999999999
10
-301.06941040652868
20
-4.9999999999999929
10
-316.50941040652867
20
-4.9999999999999929
10
-316.50941040652867
20
-1.9000000000000006
10
-331.94941040652873
20
-1.8999999999999999
10
-331.94941040652873
20
-4.9999999999999929
10
-347.38941040652867
20
-4.9999999999999929
10
-347.38941040652867
20
-1.9000000000000006
10
-362.82941040652872
20
-1.8999999999999999
10
-362.82941040652872
20
-4.9999999999999929
10
-378.26941040652861
20
-4.9999999999999929
10
-378.26941040652861
20
-1.9000000000000006
10
-393.70941040652866
20
-1.8999999999999999
10
-393.70941040652866
20
-4.9999999999999929
10
-409.14941040652866
20
-4.9999999999999929
10
-409.14941040652866
20
-1.9000000000000006
10
-424.58941040652866
20
-1.8999999999999999
10
-424.58941040652866
20
-4.9999999999999929
10
-440.02941040652865
20
-4.9999999999999929
10
-440.02941040652865
20
-1.9000000000000006
10
-455.46941040652871
20
-1.8999999999999999
10
-455.46941040652871
20
-4.9999999999999929
10
-470.90941040652865
20
-4.9999999999999929
10
-470.90941040652865
20
-1.9000000000000006
10
-486.3494104065287
20
-1.8999999999999999
10
-486.3494104065287
20
-4.9999999999999929
10
-501.78941040652865
20
-4.9999999999999929
10
-501.78941040652865
20
-1.9000000000000006
10
-517.2294104065287
20
-1.8999999999999999
10
-517.2294104065287
20
-4.9999999999999929
10
-532.66941040652864
20
-4.9999999999999929
10
-532.66941040652864
20
-1.9000000000000006
10
-548.1094104065287
20
-1.8999999999999999
10
-548.1094104065287
20
-4.9999999999999929
10
-563.54941040652864
20
-4.9999999999999929
10
-563.54941040652864
20
-1.9000000000000006
10
-578.98941040652869
20
-1.8999999999999999
10
-578.98941040652869
20
-4.9999999999999929
10
-594.42941040652863
20
-4.9999999999999929
10
-594.42941040652863
20
-1.9000000000000006
10
-609.86941040652869
20
-1.8999999999999999
10
-609.86941040652869
20
-4.9999999999999929
10
-617.60000000000002
20
-4.9999999999999929
10
-617.60000000000002
20
17.000000000000007
10
0
20
17.000000000000007
10
0
20
-4.9999999999999929
10
-7.7094104065286606
20
-4.9999999999999929
10
-7.7094104065286606
20
-1.9000000000000006
10
-23.149410406528659
20
-1.8999999999999999
10
-23.149410406528659
20
-4.9999999999999929
10
-38.589410406528664
20
-4.9999999999999929
10
-38.589410406528664
20
-1.9000000000000006
10
-54.029410406528662
20
-1.8999999999999999
10
-54.029410406528662
20
-4.9999999999999929
10
-69.469410406528667
20
-4.9999999999999929
10
-69.469410406528667
20
-1.9000000000000006
10
-84.909410406528679
20
-1.8999999999999999
10
-84.909410406528679
20
-4.9999999999999929
10
-100.34941040652866
20
-4.9999999999999929
10
-100.34941040652866
20
-1.9000000000000006
10
-115.78941040652865
20
-1.8999999999999999
10
-115.78941040652865
20
-4.9999999999999929
10
-131.22941040652867
20
-4.9999999999999929
10
-131.22941040652867
20
-1.9000000000000006
10
-146.66941040652864
20
-1.8999999999999999
10
-146.66941040652864
20
-4.9999999999999929
10
-162.10941040652867
20
-4.9999999999999929
10
-162.10941040652867
20
-1.9000000000000006
10
-177.54941040652866
20
-1.8999999999999999
10
-177.54941040652866
20
-4.9999999999999929
10
-192.98941040652863
20
-4.9999999999999929
10
-192.98941040652863
20
-1.9000000000000006
0
ENDSEC
0
SECTION
2
OBJECTS
0
DICTIONARY
5
C
100
AcDbDictionary
3
ACAD_GROUP
350
D
3
ACAD_MLINESTYLE
350
17
0
DICTIONARY
5
D
100
AcDbDictionary
0
DICTIONARY
5
1A
330
C
100
AcDbDictionary
0
DICTIONARY
5
17
100
AcDbDictionary
0
ENDSEC
0
EOF
