0
SECTION
2
HEADER
9
$INSUNITS
70
4
9
$ACADVER
1
AC1014
9
$HANDSEED
5
FFFF
0
ENDSEC
0
SECTION
2
TABLES
0
TABLE
2
VPORT
5
8
100
AcDbSymbolTable
0
ENDTAB
0
TABLE
2
LTYPE
5
5
100
AcDbSymbolTable
0
LTYPE
5
14
100
AcDbSymbolTableRecord
100
AcDbLinetypeTableRecord
2
BYBLOCK
70
0
0
LTYPE
5
15
100
AcDbSymbolTableRecord
100
AcDbLinetypeTableRecord
2
BYLAYER
70
0
0
ENDTAB
0
TABLE
2
LAYER
5
2
100
AcDbSymbolTable
70
2
0
LAYER
5
50
100
AcDbSymbolTableRecord
100
AcDbLayerTableRecord
2
0
70
0
6
CONTINUOUS
0
ENDTAB
0
TABLE
2
STYLE
5
3
100
AcDbSymbolTable
70
1
0
STYLE
5
11
100
AcDbSymbolTableRecord
100
AcDbTextStyleTableRecord
2
STANDARD
70
0
0
ENDTAB
0
TABLE
2
VIEW
5
6
100
AcDbSymbolTable
70
0
0
ENDTAB
0
TABLE
2
UCS
5
7
100
AcDbSymbolTable
70
0
0
ENDTAB
0
TABLE
2
APPID
5
9
100
AcDbSymbolTable
70
2
0
APPID
5
12
100
AcDbSymbolTableRecord
100
AcDbRegAppTableRecord
2
ACAD
70
0
0
ENDTAB
0
TABLE
2
DIMSTYLE
5
A
100
AcDbSymbolTable
70
1
0
ENDTAB
0
TABLE
2
BLOCK_RECORD
5
1
100
AcDbSymbolTable
70
1
0
BLOCK_RECORD
5
1F
100
AcDbSymbolTableRecord
100
AcDbBlockTableRecord
2
*MODEL_SPACE
0
BLOCK_RECORD
5
1B
100
AcDbSymbolTableRecord
100
AcDbBlockTableRecord
2
*PAPER_SPACE
0
ENDTAB
0
ENDSEC
0
SECTION
2
BLOCKS
0
BLOCK
5
20
100
AcDbEntity
100
AcDbBlockBegin
2
*MODEL_SPACE
0
ENDBLK
5
21
100
AcDbEntity
100
AcDbBlockEnd
0
BLOCK
5
1C
100
AcDbEntity
100
AcDbBlockBegin
2
*PAPER_SPACE
0
ENDBLK
5
1D
100
AcDbEntity
100
AcDbBlockEnd
0
ENDSEC
0
SECTION
2
ENTITIES
0
LWPOLYLINE
5
100
100
AcDbEntity
8
0
100
AcDbPolyline
90
92
70
1
43
0.0
10
208.42941040652863
20
9.6000000000000121
10
208.42941040652863
20
6.5000000000000115
10
223.86941040652863
20
6.5000000000000169
10
223.86941040652863
20
9.6000000000000174
10
239.30941040652866
20
9.6000000000000121
10
239.30941040652866
20
6.5000000000000115
10
254.74941040652865
20
6.5000000000000169
10
254.74941040652865
20
9.6000000000000174
10
270.18941040652868
20
9.6000000000000121
10
270.18941040652868
20
6.5000000000000124
10
285.62941040652868
20
6.5000000000000178
10
285.62941040652868
20
9.6000000000000192
10
301.06941040652868
20
9.6000000000000121
10
301.06941040652868
20
6.5000000000000124
10
316.50941040652867
20
6.5000000000000178
10
316.50941040652867
20
9.6000000000000192
10
331.94941040652873
20
9.6000000000000121
10
331.94941040652873
20
6.5000000000000124
10
347.38941040652867
20
6.5000000000000195
10
347.38941040652867
20
9.6000000000000192
10
362.82941040652872
20
9.6000000000000139
10
362.82941040652872
20
6.5000000000000133
10
378.26941040652866
20
6.5000000000000195
10
378.26941040652866
20
9.6000000000000192
10
393.70941040652866
20
9.6000000000000139
10
393.70941040652866
20
6.5000000000000133
10
409.14941040652866
20
6.5000000000000195
10
409.14941040652866
20
9.6000000000000192
10
424.58941040652866
20
9.6000000000000156
10
424.58941040652866
20
6.5000000000000142
10
440.02941040652865
20
6.5000000000000204
10
440.02941040652865
20
9.600000000000021
10
455.46941040652871
20
9.6000000000000156
10
455.46941040652871
20
6.5000000000000142
10
470.90941040652865
20
6.5000000000000204
10
470.90941040652865
20
9.600000000000021
10
486.3494104065287
20
9.6000000000000156
10
486.3494104065287
20
6.5000000000000142
10
501.78941040652865
20
6.5000000000000204
10
501.78941040652865
20
9.600000000000021
10
517.2294104065287
20
9.6000000000000156
10
517.2294104065287
20
6.500000000000016
10
532.66941040652864
20
6.5000000000000213
10
532.66941040652864
20
9.6000000000000227
10
548.1094104065287
20
9.6000000000000156
10
548.1094104065287
20
6.500000000000016
10
563.54941040652864
20
6.5000000000000213
10
563.54941040652864
20
9.6000000000000227
10
578.98941040652869
20
9.6000000000000156
10
578.98941040652869
20
6.500000000000016
10
594.42941040652863
20
6.5000000000000213
10
594.42941040652863
20
9.6000000000000227
10
609.86941040652869
20
9.6000000000000174
10
609.86941040652869
20
6.5000000000000169
10
617.60000000000002
20
6.5000000000000195
10
617.60000000000002
20
7.7715611723760958e-15
10
609.86941040652869
20
7.2164496600635175e-15
10
609.86941040652869
20
-3.0999999999999934
10
617.60000000000002
20
-3.0999999999999939
10
617.60000000000002
20
-20.399999999999999
10
0
20
-20.399999999999999
10
0
20
-3.1000000000000005
10
7.7094104065286473
20
-3.1000000000000005
10
7.7094104065286473
20
0
10
0
20
0
10
0
20
6.4999999999999991
10
7.7094104065286473
20
6.5000000000000036
10
7.7094104065286473
20
9.6000000000000014
10
23.149410406528656
20
9.6000000000000014
10
23.149410406528656
20
6.5000000000000089
10
38.589410406528657
20
6.5000000000000142
10
38.589410406528657
20
9.6000000000000156
10
54.029410406528662
20
9.6000000000000103
10
54.029410406528662
20
6.5000000000000089
10
69.469410406528652
20
6.5000000000000142
10
69.469410406528652
20
9.6000000000000156
10
84.90941040652865
20
9.6000000000000103
10
84.90941040652865
20
6.5000000000000107
10
100.34941040652866
20
6.500000000000016
10
100.34941040652866
20
9.6000000000000156
10
115.78941040652865
20
9.6000000000000103
10
115.78941040652865
20
6.5000000000000107
10
131.22941040652864
20
6.500000000000016
10
131.22941040652864
20
9.6000000000000156
10
146.66941040652864
20
9.6000000000000103
10
146.66941040652864
20
6.5000000000000107
10
162.10941040652867
20
6.500000000000016
10
162.10941040652867
20
9.6000000000000156
10
177.54941040652866
20
9.6000000000000121
10
177.54941040652866
20
6.5000000000000115
10
192.98941040652866
20
6.5000000000000169
10
192.98941040652866
20
9.6000000000000174
0
LWPOLYLINE
5
101
100
AcDbEntity
8
0
100
AcDbPolyline
90
4
70
1
43
0.0
10
208.42941040652863
20
-3.0999999999999983
10
223.86941040652863
20
-3.0999999999999983
10
223.86941040652863
20
2.3314683517128283e-15
10
208.42941040652863
20
2.2204460492503131e-15
0
LWPOLYLINE
5
102
100
AcDbEntity
8
0
100
AcDbPolyline
90
4
70
1
43
0.0
10
162.10941040652867
20
1.5543122344752192e-15
10
146.66941040652864
20
1.6653345369377348e-15
10
146.66941040652864
20
-3.0999999999999988
10
162.10941040652867
20
-3.0999999999999988
0
LWPOLYLINE
5
103
100
AcDbEntity
8
0
100
AcDbPolyline
90
4
70
1
43
0.0
10
100.34941040652866
20
7.7715611723760958e-16
10
84.909410406528679
20
5.5511151231257827e-16
10
84.909410406528679
20
-3.1000000000000001
10
100.34941040652866
20
-3.1000000000000001
0
LWPOLYLINE
5
104
100
AcDbEntity
8
0
100
AcDbPolyline
90
4
70
1
43
0.0
10
38.589410406528664
20
0
10
23.149410406528659
20
0
10
23.149410406528659
20
-3.1000000000000005
10
38.589410406528664
20
-3.1000000000000005
0
CIRCLE
5
105
100
AcDbEntity
8
0
100
AcDbCircle
10
602.16000000000008
20
-10.399999999999999
30
0
40
2.5
0
CIRCLE
5
106
100
AcDbEntity
8
0
100
AcDbCircle
10
15.439999999999996
20
-10.399999999999999
30
0
40
2.5
0
LWPOLYLINE
5
107
100
AcDbEntity
8
0
100
AcDbPolyline
90
4
70
1
43
0.0
10
69.469410406528667
20
3.8857805861880479e-16
10
54.029410406528662
20
5.5511151231257827e-16
10
54.029410406528662
20
-3.1000000000000001
10
69.469410406528667
20
-3.1000000000000001
0
LWPOLYLINE
5
108
100
AcDbEntity
8
0
100
AcDbPolyline
90
4
70
1
43
0.0
10
131.22941040652864
20
1.1657341758564142e-15
10
115.78941040652865
20
1.1102230246251565e-15
10
115.78941040652865
20
-3.0999999999999996
10
131.22941040652864
20
-3.0999999999999996
0
LWPOLYLINE
5
109
100
AcDbEntity
8
0
100
AcDbPolyline
90
4
70
1
43
0.0
10
192.98941040652866
20
1.9428902930940239e-15
10
177.54941040652866
20
2.2204460492503131e-15
10
177.54941040652866
20
-3.0999999999999983
10
192.98941040652866
20
-3.0999999999999983
0
LWPOLYLINE
5
110
100
AcDbEntity
8
0
100
AcDbPolyline
90
4
70
1
43
0.0
10
563.54941040652864
20
6.6058269965196806e-15
10
548.1094104065287
20
6.6613381477509392e-15
10
548.1094104065287
20
-3.0999999999999939
10
563.54941040652864
20
-3.0999999999999939
0
LWPOLYLINE
5
111
100
AcDbEntity
8
0
100
AcDbPolyline
90
4
70
1
43
0.0
10
501.78941040652865
20
5.828670879282071e-15
10
486.3494104065287
20
5.5511151231257827e-15
10
486.3494104065287
20
-3.0999999999999952
10
501.78941040652865
20
-3.0999999999999952
0
LWPOLYLINE
5
112
100
AcDbEntity
8
0
100
AcDbPolyline
90
4
70
1
43
0.0
10
440.02941040652865
20
5.0515147620444607e-15
10
424.58941040652866
20
4.9960036108132044e-15
10
424.58941040652866
20
-3.0999999999999956
10
440.02941040652865
20
-3.0999999999999956
0
LWPOLYLINE
5
113
100
AcDbEntity
8
0
100
AcDbPolyline
90
4
70
1
43
0.0
10
378.26941040652866
20
4.2743586448068527e-15
10
362.82941040652872
20
4.4408920985006262e-15
10
362.82941040652872
20
-3.0999999999999961
10
378.26941040652866
20
-3.0999999999999961
0
LWPOLYLINE
5
114
100
AcDbEntity
8
0
100
AcDbPolyline
90
4
70
1
43
0.0
10
316.50941040652867
20
3.4972025275692431e-15
10
301.06941040652868
20
3.3306690738754696e-15
10
301.06941040652868
20
-3.099999999999997
10
316.50941040652867
20
-3.099999999999997
0
LWPOLYLINE
5
115
100
AcDbEntity
8
0
100
AcDbPolyline
90
4
70
1
43
0.0
10
254.74941040652865
20
2.7200464103316331e-15
10
239.30941040652866
20
2.7755575615628914e-15
10
239.30941040652866
20
-3.0999999999999979
10
254.74941040652865
20
-3.0999999999999979
0
LWPOLYLINE
5
116
100
AcDbEntity
8
0
100
AcDbPolyline
90
4
70
1
43
0.0
10
285.62941040652868
20
3.1086244689504383e-15
10
270.18941040652868
20
3.3306690738754696e-15
10
270.18941040652868
20
-3.099999999999997
10
285.62941040652868
20
-3.099999999999997
0
LWPOLYLINE
5
117
100
AcDbEntity
8
0
100
AcDbPolyline
90
4
70
1
43
0.0
10
347.38941040652867
20
3.8857805861880479e-15
10
331.94941040652873
20
3.8857805861880479e-15
10
331.94941040652873
20
-3.0999999999999965
10
347.38941040652867
20
-3.0999999999999965
0
LWPOLYLINE
5
118
100
AcDbEntity
8
0
100
AcDbPolyline
90
4
70
1
43
0.0
10
409.14941040652866
20
4.6629367034256567e-15
10
393.70941040652866
20
4.4408920985006262e-15
10
393.70941040652866
20
-3.0999999999999961
10
409.14941040652866
20
-3.0999999999999961
0
LWPOLYLINE
5
119
100
AcDbEntity
8
0
100
AcDbPolyline
90
4
70
1
43
0.0
10
470.90941040652865
20
5.4400928206632663e-15
10
455.46941040652871
20
5.5511151231257827e-15
10
455.46941040652871
20
-3.0999999999999952
10
470.90941040652865
20
-3.0999999999999952
0
LWPOLYLINE
5
120
100
AcDbEntity
8
0
100
AcDbPolyline
90
4
70
1
43
0.0
10
532.66941040652864
20
6.2172489379008766e-15
10
517.2294104065287
20
6.106226635438361e-15
10
517.2294104065287
20
-3.0999999999999943
10
532.66941040652864
20
-3.0999999999999943
0
LWPOLYLINE
5
121
100
AcDbEntity
8
0
100
AcDbPolyline
90
4
70
1
43
0.0
10
594.42941040652863
20
6.9944050551384862e-15
10
578.98941040652869
20
7.2164496600635175e-15
10
578.98941040652869
20
-3.0999999999999934
10
594.42941040652863
20
-3.0999999999999934
0
ENDSEC
0
SECTION
2
OBJECTS
0
DICTIONARY
5
C
100
AcDbDictionary
3
ACAD_GROUP
350
D
3
ACAD_MLINESTYLE
350
17
0
DICTIONARY
5
D
100
AcDbDictionary
0
DICTIONARY
5
1A
330
C
100
AcDbDictionary
0
DICTIONARY
5
17
100
AcDbDictionary
0
ENDSEC
0
EOF
